<svg width="12" height="17" viewBox="0 0 12 17" fill="none" xmlns="http://www.w3.org/2000/svg">
<path d="M11.4669 16.1511H0.841376V14.5361H11.4669V16.1511ZM7.7125 9.74281H0.800232V8.12789H7.7125V9.74281ZM4.33866 5.46378L4.56495 12.016C4.57181 12.6606 4.47923 13.2641 4.28723 13.8264C4.09522 14.3818 3.80721 14.8002 3.42319 15.0813L1.63341 14.5361C1.87342 14.4744 2.062 14.303 2.19914 14.0218C2.34315 13.7338 2.44258 13.4047 2.49744 13.0344C2.55916 12.6641 2.59002 12.3281 2.59002 12.0263L2.36372 5.46378C2.36372 4.51746 2.56259 3.71171 2.96032 3.04655C3.35805 2.37452 3.89978 1.86021 4.58552 1.50363C5.27812 1.14704 6.05987 0.96875 6.93076 0.96875C7.82908 0.96875 8.59368 1.13676 9.22456 1.47277C9.85544 1.80878 10.3389 2.27852 10.6749 2.88197C11.0109 3.47856 11.1789 4.17459 11.1789 4.97005H9.20399C9.20399 4.39403 9.08741 3.93115 8.85426 3.58142C8.62797 3.2317 8.32967 2.97797 7.95937 2.82025C7.58907 2.66253 7.19134 2.58367 6.76618 2.58367C6.31359 2.58367 5.90215 2.69682 5.53185 2.92311C5.1684 3.14255 4.87696 3.46828 4.65753 3.90029C4.44495 4.32545 4.33866 4.84662 4.33866 5.46378Z" fill="white"/>
</svg>
