<svg width="25" height="25" viewBox="0 0 25 25" fill="none" xmlns="http://www.w3.org/2000/svg">
<path d="M18.69 21.3588H6.91003C6.59235 21.3591 6.28374 21.2529 6.03356 21.0571C5.78339 20.8613 5.60609 20.5873 5.53003 20.2788L2.88003 9.66883C2.85417 9.56554 2.85221 9.45771 2.87431 9.35355C2.89641 9.24939 2.94198 9.15165 3.00755 9.06775C3.07312 8.98386 3.15697 8.91603 3.2527 8.86943C3.34844 8.82283 3.45355 8.79868 3.56003 8.79883H22.04C22.1465 8.79868 22.2516 8.82283 22.3474 8.86943C22.4431 8.91603 22.5269 8.98386 22.5925 9.06775C22.6581 9.15165 22.7036 9.24939 22.7257 9.35355C22.7478 9.45771 22.7459 9.56554 22.72 9.66883L20.07 20.2788C19.994 20.5873 19.8167 20.8613 19.5665 21.0571C19.3163 21.2529 19.0077 21.3591 18.69 21.3588V21.3588Z" stroke="white" stroke-width="1.5" stroke-linecap="round" stroke-linejoin="round"/>
<path d="M10.6 3.6582L7.69995 8.7982" stroke="white" stroke-width="1.5" stroke-linecap="round" stroke-linejoin="round"/>
<path d="M14.6802 3.6582L17.5902 8.7982" stroke="white" stroke-width="1.5" stroke-linecap="round" stroke-linejoin="round"/>
</svg>
